<?xml version="1.0" encoding="utf-8"?>
<!-- Generator: Adobe Illustrator 28.2.0, SVG Export Plug-In . SVG Version: 6.00 Build 0)  -->
<svg version="1.1" id="Layer_1" xmlns="http://www.w3.org/2000/svg" xmlns:xlink="http://www.w3.org/1999/xlink" x="0px" y="0px"
	 viewBox="0 0 400 400" style="enable-background:new 0 0 400 400;" xml:space="preserve">
<style type="text/css">
	.st0{fill:#215C36;}
	.st1{fill:#B880FA;}
	.st2{fill:#ECBA11;}
	.st3{fill:#4264D9;}
</style>
<g>
	<path class="st0" d="M103.7,71.9c-49.7,0-90.1,40.3-90.1,90.1c0,35.3,20.3,65.8,49.8,80.5l-31.7,31.7l43.5,43.5l91.3-91.3
		c16.8-16.4,27.2-39.2,27.2-64.5C193.7,112.2,153.4,71.9,103.7,71.9z"/>
	<path class="st0" d="M383,162c0-49.7-40.3-90.1-90.1-90.1s-90.1,40.3-90.1,90.1c0,35.3,20.3,65.8,49.8,80.5L221,274.2l43.5,43.5
		l91.3-91.3C372.6,210.1,383,187.2,383,162z"/>
</g>
</svg>
