<?xml version="1.0" encoding="UTF-8"?>
<svg enable-background="new 0 0 275 275" version="1.1" viewBox="0 0 275 275" xml:space="preserve" xmlns="http://www.w3.org/2000/svg">
<style type="text/css">
	.st0{fill:#00A6CE;}
	.st1{fill:#FFFFFF;}
	.st2{fill:none;stroke:#00A6CE;stroke-width:2.03;stroke-miterlimit:10;}
</style>

	<path class="st0" d="m71.9 8.6c0-2.8-2.3-5.1-5.1-5.1h-0.2c-2.8 0-5.1 2.3-5.1 5.1v17.2c0 2.8 2.3 5.1 5.1 5.1h0.2c2.8 0 5.1-2.3 5.1-5.1v-17.2z"/>


	<path class="st0" d="M100.2,8.6c0-2.8-2.3-5.1-5.1-5.1H95c-2.8,0-5.1,2.3-5.1,5.1v17.2c0,2.8,2.3,5.1,5.1,5.1h0.2   c2.8,0,5.1-2.3,5.1-5.1V8.6z"/>


	<path class="st0" d="m128.6 8.6c0-2.8-2.3-5.1-5.1-5.1h-0.2c-2.8 0-5.1 2.3-5.1 5.1v17.2c0 2.8 2.3 5.1 5.1 5.1h0.2c2.8 0 5.1-2.3 5.1-5.1v-17.2z"/>


	<path class="st0" d="m157 8.6c0-2.8-2.3-5.1-5.1-5.1h-0.2c-2.8 0-5.1 2.3-5.1 5.1v17.2c0 2.8 2.3 5.1 5.1 5.1h0.2c2.8 0 5.1-2.3 5.1-5.1v-17.2z"/>


	<path class="st0" d="m185.4 8.6c0-2.8-2.3-5.1-5.1-5.1h-0.2c-2.8 0-5.1 2.3-5.1 5.1v17.2c0 2.8 2.3 5.1 5.1 5.1h0.2c2.8 0 5.1-2.3 5.1-5.1v-17.2z"/>


	<path class="st0" d="m213.7 8.6c0-2.8-2.3-5.1-5.1-5.1h-0.2c-2.8 0-5.1 2.3-5.1 5.1v17.2c0 2.8 2.3 5.1 5.1 5.1h0.2c2.8 0 5.1-2.3 5.1-5.1v-17.2z"/>


	<path class="st0" d="m71.9 266.4c0 2.8-2.3 5.1-5.1 5.1h-0.2c-2.8 0-5.1-2.3-5.1-5.1v-17.2c0-2.8 2.3-5.1 5.1-5.1h0.2c2.8 0 5.1 2.3 5.1 5.1v17.2z"/>


	<path class="st0" d="m100.2 266.4c0 2.8-2.3 5.1-5.1 5.1h-0.1c-2.8 0-5.1-2.3-5.1-5.1v-17.2c0-2.8 2.3-5.1 5.1-5.1h0.2c2.8 0 5.1 2.3 5.1 5.1v17.2z"/>


	<path class="st0" d="m128.6 266.4c0 2.8-2.3 5.1-5.1 5.1h-0.2c-2.8 0-5.1-2.3-5.1-5.1v-17.2c0-2.8 2.3-5.1 5.1-5.1h0.2c2.8 0 5.1 2.3 5.1 5.1v17.2z"/>


	<path class="st0" d="m157 266.4c0 2.8-2.3 5.1-5.1 5.1h-0.2c-2.8 0-5.1-2.3-5.1-5.1v-17.2c0-2.8 2.3-5.1 5.1-5.1h0.2c2.8 0 5.1 2.3 5.1 5.1v17.2z"/>


	<path class="st0" d="m185.4 266.4c0 2.8-2.3 5.1-5.1 5.1h-0.2c-2.8 0-5.1-2.3-5.1-5.1v-17.2c0-2.8 2.3-5.1 5.1-5.1h0.2c2.8 0 5.1 2.3 5.1 5.1v17.2z"/>


	<path class="st0" d="m213.7 266.4c0 2.8-2.3 5.1-5.1 5.1h-0.2c-2.8 0-5.1-2.3-5.1-5.1v-17.2c0-2.8 2.3-5.1 5.1-5.1h0.2c2.8 0 5.1 2.3 5.1 5.1v17.2z"/>


	<path class="st0" d="m266.5 71.8c2.8 0 5.1-2.3 5.1-5.1v-0.2c0-2.8-2.3-5.1-5.1-5.1h-17.2c-2.8 0-5.1 2.3-5.1 5.1v0.2c0 2.8 2.3 5.1 5.1 5.1h17.2z"/>


	<path class="st0" d="m266.5 100.1c2.8 0 5.1-2.3 5.1-5.1v-0.2c0-2.8-2.3-5.1-5.1-5.1h-17.2c-2.8 0-5.1 2.3-5.1 5.1v0.2c0 2.8 2.3 5.1 5.1 5.1h17.2z"/>


	<path class="st0" d="m266.5 128.5c2.8 0 5.1-2.3 5.1-5.1v-0.2c0-2.8-2.3-5.1-5.1-5.1h-17.2c-2.8 0-5.1 2.3-5.1 5.1v0.2c0 2.8 2.3 5.1 5.1 5.1h17.2z"/>


	<path class="st0" d="m266.5 156.9c2.8 0 5.1-2.3 5.1-5.1v-0.2c0-2.8-2.3-5.1-5.1-5.1h-17.2c-2.8 0-5.1 2.3-5.1 5.1v0.2c0 2.8 2.3 5.1 5.1 5.1h17.2z"/>


	<path class="st0" d="m266.5 185.3c2.8 0 5.1-2.3 5.1-5.1v-0.2c0-2.8-2.3-5.1-5.1-5.1h-17.2c-2.8 0-5.1 2.3-5.1 5.1v0.2c0 2.8 2.3 5.1 5.1 5.1h17.2z"/>


	<path class="st0" d="m266.5 213.6c2.8 0 5.1-2.3 5.1-5.1v-0.2c0-2.8-2.3-5.1-5.1-5.1h-17.2c-2.8 0-5.1 2.3-5.1 5.1v0.2c0 2.8 2.3 5.1 5.1 5.1h17.2z"/>


	<path class="st0" d="m8.7 71.8c-2.8 0-5.1-2.3-5.1-5.1v-0.2c0-2.8 2.3-5.1 5.1-5.1h17.2c2.8 0 5.1 2.3 5.1 5.1v0.2c0 2.8-2.3 5.1-5.1 5.1h-17.2z"/>


	<path class="st0" d="m8.7 100.1c-2.8 0-5.1-2.3-5.1-5.1v-0.2c0-2.8 2.3-5.1 5.1-5.1h17.2c2.8 0 5.1 2.3 5.1 5.1v0.2c0 2.8-2.3 5.1-5.1 5.1h-17.2z"/>


	<path class="st0" d="m8.7 128.5c-2.8 0-5.1-2.3-5.1-5.1v-0.2c0-2.8 2.3-5.1 5.1-5.1h17.2c2.8 0 5.1 2.3 5.1 5.1v0.2c0 2.8-2.3 5.1-5.1 5.1h-17.2z"/>


	<path class="st0" d="m8.7 156.9c-2.8 0-5.1-2.3-5.1-5.1v-0.2c0-2.8 2.3-5.1 5.1-5.1h17.2c2.8 0 5.1 2.3 5.1 5.1v0.2c0 2.8-2.3 5.1-5.1 5.1h-17.2z"/>


	<path class="st0" d="m8.7 185.3c-2.8 0-5.1-2.3-5.1-5.1v-0.2c0-2.8 2.3-5.1 5.1-5.1h17.2c2.8 0 5.1 2.3 5.1 5.1v0.2c0 2.8-2.3 5.1-5.1 5.1h-17.2z"/>


	<path class="st0" d="m8.7 213.6c-2.8 0-5.1-2.3-5.1-5.1v-0.2c0-2.8 2.3-5.1 5.1-5.1h17.2c2.8 0 5.1 2.3 5.1 5.1v0.2c0 2.8-2.3 5.1-5.1 5.1h-17.2z"/>

<path class="st1" d="m236.5 22.1h-195.4c-10.6 0-19.3 8.7-19.3 19.3v193.3c0 10.6 8.7 19.3 19.3 19.3h195.5c10.6 0 19.3-8.7 19.3-19.3v-193.3c-0.1-10.6-8.8-19.3-19.4-19.3z"/>
<path d="m233.6 35.4h-189.7c-4.9 0-8.9 4-8.9 8.9v187.6c0 4.9 4 8.9 8.9 8.9h189.7c4.9 0 8.9-4 8.9-8.9v-187.6c0.1-4.9-3.9-8.9-8.9-8.9zm5.4 179.2v17.3c0 3-2.4 5.4-5.4 5.4h-189.7c-3 0-5.4-2.4-5.4-5.4v-187.6c0-3 2.4-5.4 5.4-5.4h189.7c3 0 5.4 2.4 5.4 5.4v170.3z"/>
<path class="st0" d="m236.5 22.1h-195.4c-10.6 0-19.3 8.7-19.3 19.3v193.3c0 10.6 8.7 19.3 19.3 19.3h195.5c10.6 0 19.3-8.7 19.3-19.3v-193.3c-0.1-10.6-8.8-19.3-19.4-19.3zm13.3 194.8v17.8c0 7.3-5.9 13.2-13.2 13.2h-195.5c-7.3 0-13.2-5.9-13.2-13.2v-193.3c0-7.3 5.9-13.2 13.2-13.2h195.5c7.3 0 13.2 5.9 13.2 13.2v175.5z"/>

	
		<path d="m51.6 168.1h-2.2v-13.9c0-1.9 0.9-2.9 2.7-2.9h1.7c1.8 0 2.7 1 2.7 2.9v13.9h-2.2v-6.1h-2.6v6.1zm2.6-8.2v-5.6c0-0.7-0.3-1-1-1h-0.6c-0.7 0-1 0.3-1 1v5.6h2.6z"/>
		<path d="m59.5 151.3h4.4c1.7 0 2.6 1 2.6 2.9v4.1c0 1.5-0.4 2.4-1.3 2.8l1.6 7h-2.1l-1.5-6.8h-1.4v6.8h-2.2v-16.8zm2.2 8.1h1.5c0.7 0 1-0.4 1-1.2v-3.6c0-0.8-0.3-1.2-1-1.2h-1.5v6z"/>
		<path d="m72.9 153.4v14.7h-2.2v-14.7h-2.1v-2h6.5v2h-2.2z"/>
		<path d="m77.5 168.1v-16.8h2.2v16.8h-2.2z"/>
		<path d="m88.1 158.5v2h-2.9v7.6h-2.2v-16.8h5.6v2h-3.3v5.1h2.8z"/>
		<path d="M91,168.1v-16.8h2.2v16.8H91z"/>
		<path d="m103.1 164.2v1.1c0 1.9-0.9 2.8-2.7 2.8h-1.4c-1.8 0-2.7-0.9-2.7-2.8v-11.1c0-1.9 0.9-2.8 2.7-2.8h1.4c1.8 0 2.7 1 2.7 2.8v1.9h-2.2v-1.7c0-0.7-0.3-1-1-1h-0.4c-0.6 0-0.9 0.3-0.9 1v10.7c0 0.7 0.3 1 0.9 1h0.6c0.6 0 0.9-0.3 0.9-1v-0.9h2.1z"/>
		<path d="M106,168.1v-16.8h2.2v16.8H106z"/>
		<path d="m113.5 168.1h-2.2v-13.9c0-1.9 0.9-2.9 2.7-2.9h1.7c1.8 0 2.7 1 2.7 2.9v13.9h-2.2v-6.1h-2.6v6.1zm2.6-8.2v-5.6c0-0.7-0.3-1-1-1h-0.6c-0.7 0-1 0.3-1 1v5.6h2.6z"/>
		<path d="m126.7 168.1h-5.3v-16.8h2.2v14.7h3.1v2.1z"/>
		<path d="m133.9 168.1v-16.8h2.2v16.8h-2.2z"/>
		<path d="m143.9 159.4v-8.1h2.2v16.8h-2.2v-3.3l-2.4-7.6v11h-2.2v-16.8h2.2l2.4 8z"/>
		<path d="m152.9 153.4v14.7h-2.2v-14.7h-2.1v-2h6.5v2h-2.2z"/>
		<path d="m157.4 168.1v-16.8h5.6v2h-3.3v5.1h2.9v2h-2.9v5.6h3.3v2h-5.6z"/>
		<path d="m171 168.1h-5.3v-16.8h2.2v14.7h3.1v2.1z"/>
		<path d="m178.7 168.1h-5.3v-16.8h2.2v14.7h3.1v2.1z"/>
		<path d="M181,168.1v-16.8h2.2v16.8H181z"/>
		<path d="m189.9 162v-2h3.4v8.2h-4.4c-1.7 0-2.6-0.9-2.6-2.8v-11.1c0-1.9 0.9-2.9 2.6-2.9h1.5c1.9 0 2.8 1 2.8 2.9v1.8h-2.2v-1.5c0-0.8-0.3-1.2-1-1.2h-0.6c-0.7 0-1 0.4-1 1.2v10.3c0 0.8 0.3 1.2 1 1.2h1.5v-4.1h-1z"/>
		<path d="m196.2 168.1v-16.8h5.6v2h-3.3v5.1h2.9v2h-2.9v5.6h3.3v2h-5.6z"/>
		<path d="m209.1 159.4v-8.1h2.2v16.8h-2.2v-3.3l-2.4-7.6v11h-2.2v-16.8h2.2l2.4 8z"/>
		<path d="m221.2 164.2v1.1c0 1.9-0.9 2.8-2.7 2.8h-1.4c-1.8 0-2.7-0.9-2.7-2.8v-11.1c0-1.9 0.9-2.8 2.7-2.8h1.4c1.8 0 2.7 1 2.7 2.8v1.9h-2.2v-1.7c0-0.7-0.3-1-1-1h-0.4c-0.6 0-0.9 0.3-0.9 1v10.7c0 0.7 0.3 1 0.9 1h0.6c0.6 0 0.9-0.3 0.9-1v-0.9h2.1z"/>
		<path d="M224,168.1v-16.8h5.6v2h-3.3v5.1h2.9v2h-2.9v5.6h3.3v2H224z"/>
	


	<path class="st0" d="M49.4,176.3h11.5v3.4h-7.6v2.2h6.9v3.1h-6.9v2.3H61v3.4H49.4V176.3z"/>
	<path class="st0" d="m71.5 183.3-4.7-7h4.6l2.5 4 2.6-4h4.5l-4.7 7 4.9 7.3h-4.6l-2.7-4.3-2.8 4.3h-4.5l4.9-7.3z"/>
	<path class="st0" d="m94.1 190.9c-1 0-2-0.2-2.9-0.6s-1.7-0.9-2.3-1.5c-0.7-0.7-1.2-1.4-1.6-2.4-0.4-0.9-0.6-1.9-0.6-3 0-1 0.2-2 0.6-2.9s0.9-1.7 1.6-2.4 1.5-1.2 2.4-1.6 1.9-0.6 3-0.6c0.7 0 1.4 0.1 2 0.2s1.1 0.3 1.6 0.6 0.9 0.6 1.4 1c0.4 0.4 0.8 0.8 1.1 1.2l-3 2.3c-0.4-0.5-0.9-0.9-1.4-1.2s-1.1-0.5-1.8-0.5c-0.5 0-1 0.1-1.4 0.3s-0.8 0.5-1.1 0.8-0.5 0.7-0.7 1.2-0.3 1-0.3 1.5 0.1 1 0.3 1.5 0.4 0.9 0.7 1.2 0.7 0.6 1.1 0.8 0.9 0.3 1.4 0.3c0.4 0 0.7 0 1-0.1s0.6-0.2 0.8-0.4c0.3-0.2 0.5-0.3 0.7-0.6l0.7-0.7 3 2.1c-0.3 0.5-0.7 0.9-1.1 1.3s-0.9 0.7-1.4 1-1.1 0.5-1.7 0.7c-0.6 0.4-1.4 0.5-2.1 0.5z"/>
	<path class="st0" d="m106.6 176.3h11.5v3.4h-7.6v2.2h6.9v3.1h-6.9v2.3h7.7v3.4h-11.6v-14.4z"/>
	<path class="st0" d="m124.8 176.3h4v10.8h6.9v3.5h-10.9v-14.3z"/>
	<path class="st0" d="M142,176.3h4v10.8h6.9v3.5H142V176.3z"/>
	<path class="st0" d="m159.1 176.3h11.5v3.4h-7.6v2.2h6.9v3.1h-6.9v2.3h7.7v3.4h-11.6v-14.4z"/>
	<path class="st0" d="m177.3 176.3h3.7l5.9 7.6v-7.6h3.9v14.3h-3.5l-6.1-7.9v7.9h-3.9v-14.3z"/>
	<path class="st0" d="m204.9 190.9c-1 0-2-0.2-2.9-0.6s-1.7-0.9-2.3-1.5-1.2-1.4-1.6-2.4c-0.4-0.9-0.6-1.9-0.6-3 0-1 0.2-2 0.6-2.9s0.9-1.7 1.6-2.4 1.5-1.2 2.4-1.6 1.9-0.6 3-0.6c0.7 0 1.4 0.1 2 0.2s1.1 0.3 1.6 0.6 0.9 0.6 1.4 1c0.4 0.4 0.8 0.8 1.1 1.2l-3 2.3c-0.4-0.5-0.9-0.9-1.4-1.2s-1.1-0.5-1.8-0.5c-0.5 0-1 0.1-1.4 0.3s-0.8 0.5-1.1 0.8-0.5 0.7-0.7 1.2-0.3 1-0.3 1.5 0.1 1 0.3 1.5 0.4 0.9 0.7 1.2 0.7 0.6 1.1 0.8 0.9 0.3 1.4 0.3c0.4 0 0.7 0 1-0.1s0.6-0.2 0.8-0.4 0.5-0.3 0.7-0.6l0.7-0.7 3 2.1c-0.3 0.5-0.7 0.9-1.1 1.3s-0.9 0.7-1.4 1-1.1 0.5-1.7 0.7c-0.6 0.4-1.4 0.5-2.1 0.5z"/>
	<path class="st0" d="m217.4 176.3h11.5v3.4h-7.6v2.2h6.9v3.1h-6.9v2.3h7.7v3.4h-11.6v-14.4z"/>
	<path class="st0" d="m106.3 194.5h2.7l4.4 10.3h-3l-0.7-1.8h-3.9l-0.7 1.8h-3l4.2-10.3zm2.5 6.3-1.1-2.9-1.2 2.9h2.3z"/>
	<path class="st0" d="m117 194.6h3l1.8 5.9 2-6h2.4l2 6 1.8-5.9h2.9l-3.4 10.3h-2.5l-2.1-5.9-2 5.9h-2.5l-3.4-10.3z"/>
	<path class="st0" d="m140.8 194.5h2.7l4.4 10.3h-3l-0.7-1.8h-3.9l-0.7 1.8h-3l4.2-10.3zm2.4 6.3-1.1-2.9-1.2 2.9h2.3z"/>
	<path class="st0" d="m152.1 194.6h4.8c0.8 0 1.5 0.1 2 0.3s1 0.5 1.3 0.8c0.6 0.6 0.9 1.4 0.9 2.4 0 0.8-0.2 1.4-0.6 2-0.4 0.5-0.9 0.9-1.5 1.2l2.4 3.6h-3.3l-2.1-3.1h-1.2v3.1h-2.8v-10.3zm4.7 4.9c0.5 0 0.9-0.1 1.1-0.3 0.3-0.2 0.4-0.5 0.4-0.9s-0.1-0.7-0.4-0.9-0.6-0.3-1.1-0.3h-1.9v2.5h1.9z"/>
	<path class="st0" d="m165.8 194.6h3.9c0.9 0 1.7 0.1 2.4 0.4 0.7 0.2 1.3 0.6 1.8 1s0.9 1 1.1 1.6c0.3 0.6 0.4 1.3 0.4 2s-0.1 1.4-0.4 2.1c-0.3 0.6-0.6 1.2-1.1 1.6-0.5 0.5-1.1 0.8-1.8 1.1s-1.5 0.4-2.5 0.4h-3.9v-10.2zm4 7.7c0.9 0 1.5-0.2 2.1-0.7 0.5-0.4 0.8-1.1 0.8-1.9s-0.3-1.5-0.8-1.9-1.2-0.7-2.1-0.7h-1.2v5.2h1.2z"/>

<line class="st2" x1="48.8" x2="229.2" y1="142.4" y2="142.4"/>

	<path d="m85.3 134h-18l30.1-68.4h-22.7l0.2-13.2h37.7l37.9 81.7h-18.7l-7-17.1h-32.7l-6.8 17zm23.5-58.5-10.7 26.3h21.2l-10.5-26.3z"/>
	<path d="M184.5,52.4h17.2V134h-17.2V52.4z"/>


	<path d="m113.5 225.6c2.2-1.7 7.8-4.6 7.8-8 0-1.2-0.8-2.3-2.8-2.3-1.2 0-2 0.3-2.4 0.5 0.1 0.2 0.2 0.4 0.2 0.7 0 0.8-0.5 1.5-1.5 1.5s-1.5-0.7-1.5-1.5c0-1.7 2.6-3.1 5.5-3.1 2.8 0 5 1.2 5 4 0 3.4-3.5 6-6.7 7.8h7.2v2.1h-10.4l-0.4-1.7z"/>
	<path d="m126.5 220.5c0-3.9 1.8-7.1 6.4-7.1 4.5 0 6.4 3.3 6.4 7.1s-1.9 7.1-6.4 7.1-6.4-3.3-6.4-7.1zm10.2 0c0-3-1.1-5.2-3.8-5.2s-3.8 2.2-3.8 5.2 1.1 5.2 3.8 5.2 3.8-2.2 3.8-5.2z"/>
	<path d="m141.6 225.6c2.2-1.7 7.8-4.6 7.8-8 0-1.2-0.8-2.3-2.8-2.3-1.2 0-2 0.3-2.4 0.5 0.1 0.2 0.2 0.4 0.2 0.7 0 0.8-0.5 1.5-1.5 1.5s-1.5-0.7-1.5-1.5c0-1.7 2.6-3.1 5.5-3.1 2.8 0 5 1.2 5 4 0 3.4-3.5 6-6.7 7.8h7.2v2.1h-10.4l-0.4-1.7z"/>
	
		<path d="m159.2 225.7h2.4v-2.5h-7.1v-1.5c2.4-2.8 4.3-6.7 4.7-9.8 1.1-0.2 1.8 0.2 1.8 1.2 0 2.1-2.3 6.3-4.2 8.5h4.9v-2.1c0.5-0.8 0.8-1.7 1.2-2.6h0.8v4.6h2.1v1.6h-2v2.5h2v1.5h-6.5v-1.4z"/>
		<path d="m165.8 227.3h-6.7v-1.7h2.4v-2.3h-7.1v-1.6c2.4-2.8 4.3-6.7 4.7-9.8v-0.1h0.1c0.6-0.1 1.2-0.1 1.5 0.2 0.3 0.2 0.5 0.6 0.5 1.1 0 2-2.2 6.1-4.1 8.4h4.6v-2c0.5-0.9 0.9-1.8 1.2-2.6v-0.1h1v4.6h2.1v1.8h-2v2.3h2v1.8zm-6.5-0.2h6.3v-1.4h-2v-2.7h2v-1.4h-2.1v-4.6h-0.7c-0.3 0.8-0.6 1.6-1.1 2.5v2.1h-5.1l0.1-0.2c1.9-2.2 4.2-6.4 4.2-8.4 0-0.4-0.1-0.8-0.4-1s-0.7-0.3-1.3-0.2c-0.4 3.1-2.2 7-4.7 9.8v1.3h7.1v2.7h-2.4v1.5z"/>
	

</svg>
