<?xml version="1.0" encoding="utf-8"?>
<!-- Generator: Adobe Illustrator 28.2.0, SVG Export Plug-In . SVG Version: 6.00 Build 0)  -->
<svg version="1.1" id="Layer_1" xmlns="http://www.w3.org/2000/svg" xmlns:xlink="http://www.w3.org/1999/xlink" x="0px" y="0px"
	 viewBox="0 0 400 400" style="enable-background:new 0 0 400 400;" xml:space="preserve">
<style type="text/css">
	.st0{fill:#215C36;}
	.st1{fill:#B880FA;}
	.st2{fill:#ECBA11;}
	.st3{fill:#4264D9;}
	.st4{opacity:0.3;}
	.st5{fill:#CBE1F5;}
</style>
<g class="st4">
	<rect x="175" y="0" class="st5" width="50" height="100"/>
	<rect x="68.9" y="43.9" transform="matrix(0.7071 -0.7071 0.7071 0.7071 -38.9087 93.934)" class="st5" width="50" height="100"/>
	<rect x="25" y="150" transform="matrix(4.500184e-11 -1 1 4.500184e-11 -150 250)" class="st5" width="50" height="100"/>
	
		<rect x="68.9" y="256.1" transform="matrix(-0.7071 -0.7071 0.7071 -0.7071 -56.066 588.9088)" class="st5" width="50" height="100"/>
	<rect x="175" y="300" transform="matrix(-1 -8.982161e-11 8.982161e-11 -1 400 700)" class="st5" width="50" height="100"/>
	
		<rect x="281.1" y="256.1" transform="matrix(-0.7071 0.7071 -0.7071 -0.7071 738.9088 306.066)" class="st5" width="50" height="100"/>
	<rect x="325" y="150" transform="matrix(-1.340236e-10 1 -1 -1.340236e-10 550 -150)" class="st5" width="50" height="100"/>
	
		<rect x="281.1" y="43.9" transform="matrix(0.7071 0.7071 -0.7071 0.7071 156.066 -188.9087)" class="st5" width="50" height="100"/>
</g>
</svg>
